<svg xmlns="http://www.w3.org/2000/svg" width="101" height="27" viewBox="0 0 101 27" xmlns:xlink="http://www.w3.org/1999/xlink">
  <defs>
    <linearGradient id="a" x1="80.758%" x2="-157.296%" y1="49.998%" y2="49.998%">
      <stop stop-color="#FEE000" offset="0%"/>
      <stop stop-color="#FCCF0B" offset="19.41%"/>
      <stop stop-color="#FAB318" offset="54.69%"/>
      <stop stop-color="#F9A21B" offset="82.79%"/>
      <stop stop-color="#F99B1C" offset="100%"/>
    </linearGradient>
    <linearGradient id="b" x1="71.528%" x2="-9.48%" y1="30.901%" y2="136.013%">
      <stop stop-color="#EF4547" offset="0%"/>
      <stop stop-color="#C6186D" offset="100%"/>
    </linearGradient>
    <linearGradient id="c" x1="-9.854%" x2="56.3%" y1="-36.492%" y2="49.339%">
      <stop stop-color="#279E6F" offset="0%"/>
      <stop stop-color="#4DAB6D" offset="31.68%"/>
      <stop stop-color="#6ABA6A" offset="73.98%"/>
      <stop stop-color="#74C169" offset="100%"/>
    </linearGradient>
    <path id="d" d="M6.67089844,9.56884766 L5.80517578,9.56884766 L5.80517578,8 L1.10302734,8 L1.10302734,9.57763672 L0.237304688,9.57763672 L0.237304688,7.32324219 L0.694335938,7.32324219 C1.08105662,7.32324219 1.37036037,7.05737571 1.56225586,6.52563477 C1.75415135,5.99389383 1.87646458,5.21533716 1.92919922,4.18994141 L2.07421875,1.6015625 L5.79638672,1.6015625 L5.79638672,7.32324219 L6.67089844,7.32324219 L6.67089844,9.56884766 Z M2.80371094,4.18994141 C2.76562481,4.91943724 2.68725645,5.54565168 2.56860352,6.06860352 C2.44995058,6.59155535 2.27783316,7.00976406 2.05224609,7.32324219 L4.93066406,7.32324219 L4.93066406,2.28271484 L2.90478516,2.28271484 L2.80371094,4.18994141 Z M12.449707,5.37207031 C12.449707,6.15430079 12.2072778,6.80322008 11.7224121,7.31884766 C11.2375464,7.83447523 10.6084023,8.09228516 9.83496094,8.09228516 C9.08788689,8.09228516 8.48071523,7.83447523 8.01342773,7.31884766 C7.54614024,6.80322008 7.3125,6.15430079 7.3125,5.37207031 L7.3125,4.23388672 C7.3125,3.45458595 7.54614024,2.80566666 8.01342773,2.28710938 C8.48071523,1.76855209 9.08788689,1.50927734 9.83496094,1.50927734 C10.6084023,1.50927734 11.2375464,1.76781968 11.7224121,2.28491211 C12.2072778,2.80200454 12.449707,3.45165625 12.449707,4.23388672 L12.449707,5.37207031 Z M11.5839844,4.22509766 C11.5839844,3.63915723 11.4257828,3.15869328 11.109375,2.78369141 C10.7929672,2.40868953 10.3681667,2.22119141 9.83496094,2.22119141 C9.33105217,2.22119141 8.92895658,2.40868953 8.62866211,2.78369141 C8.32836764,3.15869328 8.17822266,3.63915723 8.17822266,4.22509766 L8.17822266,5.37207031 C8.17822266,5.96387015 8.32836764,6.44726375 8.62866211,6.82226562 C8.92895658,7.1972675 9.33105217,7.38476562 9.83496094,7.38476562 C10.3710964,7.38476562 10.7966293,7.19799991 11.1115723,6.82446289 C11.4265152,6.45092587 11.5839844,5.96679985 11.5839844,5.37207031 L11.5839844,4.22509766 Z M18.2636719,5.95214844 L18.2724609,5.97851562 C18.2841797,6.57910457 18.0732444,7.08154095 17.6396484,7.48583984 C17.2060525,7.89013874 16.6333043,8.09228516 15.9213867,8.09228516 C15.1977503,8.09228516 14.6081566,7.83594006 14.1525879,7.32324219 C13.6970192,6.81054431 13.4692383,6.16016019 13.4692383,5.37207031 L13.4692383,4.23388672 C13.4692383,3.44579684 13.6970192,2.79468031 14.1525879,2.28051758 C14.6081566,1.76635485 15.1977503,1.50927734 15.9213867,1.50927734 C16.6450231,1.50927734 17.220701,1.70190237 17.6484375,2.0871582 C18.076174,2.47241404 18.2841797,2.98290698 18.2724609,3.61865234 L18.2636719,3.64501953 L17.4331055,3.64501953 C17.4331055,3.1967751 17.3012708,2.84228646 17.0375977,2.58154297 C16.7739245,2.32079948 16.4018579,2.19042969 15.9213867,2.19042969 C15.4379859,2.19042969 15.0527358,2.38525196 14.765625,2.77490234 C14.4785142,3.16455273 14.3349609,3.64794633 14.3349609,4.22509766 L14.3349609,5.37207031 C14.3349609,5.95508104 14.4785142,6.4414043 14.765625,6.83105469 C15.0527358,7.22070507 15.4379859,7.41552734 15.9213867,7.41552734 C16.4018579,7.41552734 16.7739245,7.28588997 17.0375977,7.02661133 C17.3012708,6.76733269 17.4331055,6.40918197 17.4331055,5.95214844 L18.2636719,5.95214844 Z M23.7436523,2.28271484 L21.6342773,2.28271484 L21.6342773,8 L20.7685547,8 L20.7685547,2.28271484 L18.6855469,2.28271484 L18.6855469,1.6015625 L23.7436523,1.6015625 L23.7436523,2.28271484 Z M26.4023438,4.59423828 L26.7275391,5.43359375 L26.7539062,5.43359375 L28.2832031,1.6015625 L29.2851562,1.6015625 L26.9604492,6.94970703 C26.7963859,7.3129901 26.5971691,7.59423729 26.362793,7.79345703 C26.1284168,7.99267678 25.7856468,8.09228516 25.3344727,8.09228516 C25.144042,8.09228516 24.9660653,8.07617204 24.8005371,8.04394531 C24.6350089,8.01171859 24.5039067,7.97363303 24.4072266,7.9296875 L24.5170898,7.296875 C24.61377,7.32617202 24.7324212,7.35327136 24.8730469,7.37817383 C25.0136726,7.4030763 25.1367182,7.41552734 25.2421875,7.41552734 C25.4824231,7.41552734 25.6743157,7.35327211 25.8178711,7.22875977 C25.9614265,7.10424742 26.077148,6.94384864 26.1650391,6.74755859 L26.3364258,6.3828125 L24.1962891,1.6015625 L25.1674805,1.6015625 L26.4023438,4.59423828 Z M35.1914062,8 L34.3256836,8 L34.3256836,2.28271484 L31.2099609,2.28271484 L31.2099609,8 L30.3442383,8 L30.3442383,1.6015625 L35.1914062,1.6015625 L35.1914062,8 Z M41.5151367,8 L40.6494141,8 L40.6494141,5.17431641 L37.5424805,5.17431641 L37.5424805,8 L36.6767578,8 L36.6767578,1.6015625 L37.5424805,1.6015625 L37.5424805,4.49316406 L40.6494141,4.49316406 L40.6494141,1.6015625 L41.5151367,1.6015625 L41.5151367,8 Z M47.8959961,5.37207031 C47.8959961,6.15430079 47.6535669,6.80322008 47.1687012,7.31884766 C46.6838355,7.83447523 46.0546914,8.09228516 45.28125,8.09228516 C44.534176,8.09228516 43.9270043,7.83447523 43.4597168,7.31884766 C42.9924293,6.80322008 42.7587891,6.15430079 42.7587891,5.37207031 L42.7587891,4.23388672 C42.7587891,3.45458595 42.9924293,2.80566666 43.4597168,2.28710938 C43.9270043,1.76855209 44.534176,1.50927734 45.28125,1.50927734 C46.0546914,1.50927734 46.6838355,1.76781968 47.1687012,2.28491211 C47.6535669,2.80200454 47.8959961,3.45165625 47.8959961,4.23388672 L47.8959961,5.37207031 Z M47.0302734,4.22509766 C47.0302734,3.63915723 46.8720719,3.15869328 46.5556641,2.78369141 C46.2392562,2.40868953 45.8144558,2.22119141 45.28125,2.22119141 C44.7773412,2.22119141 44.3752456,2.40868953 44.0749512,2.78369141 C43.7746567,3.15869328 43.6245117,3.63915723 43.6245117,4.22509766 L43.6245117,5.37207031 C43.6245117,5.96387015 43.7746567,6.44726375 44.0749512,6.82226562 C44.3752456,7.1972675 44.7773412,7.38476562 45.28125,7.38476562 C45.8173855,7.38476562 46.2429183,7.19799991 46.5578613,6.82446289 C46.8728043,6.45092587 47.0302734,5.96679985 47.0302734,5.37207031 L47.0302734,4.22509766 Z M51.3808594,8 L51.3808594,1.6015625 L53.4682617,1.6015625 C54.1362338,1.6015625 54.6591778,1.74584817 55.0371094,2.03442383 C55.415041,2.32299949 55.6040039,2.75585649 55.6040039,3.33300781 C55.6040039,3.60839981 55.5190438,3.85522352 55.3491211,4.07348633 C55.1791984,4.29174914 54.9536147,4.45800724 54.6723633,4.57226562 C55.0913107,4.63085967 55.4230945,4.81249848 55.6677246,5.1171875 C55.9123547,5.42187652 56.034668,5.78075965 56.034668,6.19384766 C56.034668,6.77978809 55.8442402,7.22729338 55.4633789,7.53637695 C55.0825176,7.84546053 54.5668978,8 53.9165039,8 L51.3808594,8 Z M52.246582,4.99853516 L52.246582,7.32324219 L53.9165039,7.32324219 C54.3120137,7.32324219 54.6188954,7.22583105 54.8371582,7.03100586 C55.055421,6.83618067 55.1645508,6.56006038 55.1645508,6.20263672 C55.1645508,5.84814276 55.0532238,5.56250108 54.8305664,5.34570312 C54.607909,5.12890517 54.3076191,5.01318367 53.9296875,4.99853516 L52.246582,4.99853516 Z M52.246582,4.32177734 L53.6484375,4.32177734 C53.9707047,4.32177734 54.2329091,4.23315518 54.4350586,4.0559082 C54.637208,3.87866122 54.7382812,3.63183752 54.7382812,3.31542969 C54.7382812,2.96972483 54.6291515,2.7111825 54.4108887,2.53979492 C54.1926259,2.36840735 53.87842,2.28271484 53.4682617,2.28271484 L52.246582,2.28271484 L52.246582,4.32177734 Z"/>
  </defs>
  <g fill="none" transform="translate(0 -1)">
    <path fill="#FFFFFF" d="M53.276016,17.8675123 C51.3422598,17.8675123 49.7661499,19.3375617 49.7661499,21.3642236 C49.7661499,23.3777308 51.3422598,24.8609349 53.276016,24.8609349 C55.2097721,24.8609349 56.7858821,23.3777308 56.7858821,21.3642236 C56.7858821,19.3375617 55.2097721,17.8675123 53.276016,17.8675123 Z M53.276016,23.4829692 C52.2162321,23.4829692 51.3019732,22.6089969 51.3019732,21.3634015 C51.3019732,20.1054733 52.2162321,19.2438337 53.276016,19.2438337 C54.3357999,19.2438337 55.2492366,20.1046512 55.2492366,21.3634015 C55.2492366,22.6089969 54.3357999,23.4829692 53.276016,23.4829692 Z M45.619098,17.8675123 C43.6853418,17.8675123 42.1092319,19.3375617 42.1092319,21.3642236 C42.1092319,23.3777308 43.6853418,24.8609349 45.619098,24.8609349 C47.5528541,24.8609349 49.1289641,23.3777308 49.1289641,21.3642236 C49.1289641,19.3375617 47.5528541,17.8675123 45.619098,17.8675123 Z M45.619098,23.4829692 C44.5593141,23.4829692 43.6450552,22.6089969 43.6450552,21.3634015 C43.6450552,20.1054733 44.5593141,19.2438337 45.619098,19.2438337 C46.6788818,19.2438337 47.5923185,20.1046512 47.5923185,21.3634015 C47.5923185,22.6089969 46.6780597,23.4829692 45.619098,23.4829692 Z M36.5102185,18.940451 L36.5102185,20.4236552 L40.0603712,20.4236552 C39.9543105,21.258163 39.6764153,21.8673949 39.2521729,22.2916373 C38.7358468,22.8079634 37.9276486,23.3777308 36.5102185,23.3777308 C34.3248767,23.3777308 32.6163965,21.6158093 32.6163965,19.4304675 C32.6163965,17.2451257 34.3248767,15.4832041 36.5102185,15.4832041 C37.6892178,15.4832041 38.5500352,15.946911 39.1855767,16.542988 L40.2322058,15.4963589 C39.3450787,14.6486963 38.1660794,14 36.5102185,14 C33.5166784,14 31,16.4369274 31,19.4304675 C31,22.4240075 33.5166784,24.8609349 36.5102185,24.8609349 C38.126615,24.8609349 39.3450787,24.3314541 40.298802,23.3374442 C41.2788349,22.3574113 41.5838619,20.9794456 41.5838619,19.8670425 C41.5838619,19.5225511 41.5575523,19.2043693 41.5041109,18.9396288 L36.5102185,18.9396288 L36.5102185,18.940451 Z M73.7613343,20.0923185 C73.4702842,19.3104299 72.582335,17.8675123 70.7677942,17.8675123 C68.9664083,17.8675123 67.4700493,19.2849424 67.4700493,21.3642236 C67.4700493,23.3242894 68.9532535,24.8609349 70.940451,24.8609349 C72.5428706,24.8609349 73.4702842,23.880902 73.8542401,23.3111346 L72.662086,22.5160911 C72.2649753,23.0990134 71.7215175,23.4829692 70.940451,23.4829692 C70.1585624,23.4829692 69.6027719,23.125323 69.2451257,22.4231853 L73.9208363,20.4894292 L73.7613343,20.0923185 Z M68.9927179,21.258163 C68.9532535,19.9073291 70.039347,19.2183463 70.8204134,19.2183463 C71.4296453,19.2183463 71.9459713,19.5225511 72.1186281,19.9599483 L68.9927179,21.258163 Z M65.1918017,24.6488137 L66.7284473,24.6488137 L66.7284473,14.370801 L65.1918017,14.370801 L65.1918017,24.6488137 Z M62.6743012,18.6485788 L62.6216819,18.6485788 C62.2771905,18.2383134 61.6153394,17.8675123 60.7808316,17.8675123 C59.0320648,17.8675123 57.4296453,19.4041579 57.4296453,21.3773784 C57.4296453,23.3374442 59.0320648,24.8609349 60.7808316,24.8609349 C61.6153394,24.8609349 62.2771905,24.4901339 62.6216819,24.0658915 L62.6743012,24.0658915 L62.6743012,24.5690627 C62.6743012,25.9067418 61.9590087,26.6220343 60.806319,26.6220343 C59.8657505,26.6220343 59.2828283,25.9462062 59.0443975,25.377261 L57.7067183,25.9338736 C58.0906742,26.8612873 59.1109937,28 60.806319,28 C62.607705,28 64.1311957,26.9402161 64.1311957,24.3577637 L64.1311957,18.0796335 L62.6743012,18.0796335 L62.6743012,18.6485788 L62.6743012,18.6485788 Z M60.9132018,23.4829692 C59.8534179,23.4829692 58.9662908,22.5958421 58.9662908,21.3765563 C58.9662908,20.1449377 59.8534179,19.2438337 60.9132018,19.2438337 C61.9598309,19.2438337 62.7811839,20.1441156 62.7811839,21.3765563 C62.7803618,22.5958421 61.9598309,23.4829692 60.9132018,23.4829692 Z M80.9586563,14.370801 L77.2827108,14.370801 L77.2827108,24.6488137 L78.8168898,24.6488137 L78.8168898,20.7549918 L80.9594785,20.7549918 C82.6597369,20.7549918 84.3312192,19.5241954 84.3312192,17.5633075 C84.3312192,15.6024195 82.6589147,14.370801 80.9586563,14.370801 Z M80.9981207,19.3244069 L78.8160677,19.3244069 L78.8160677,15.801386 L80.9981207,15.801386 C82.1450552,15.801386 82.796218,16.7509984 82.796218,17.5633075 C82.796218,18.3591731 82.1450552,19.3244069 80.9981207,19.3244069 Z M90.4794456,17.8486023 C89.3686869,17.8486023 88.2184637,18.3377966 87.7424242,19.4222457 L89.1047686,19.991191 C89.3958187,19.4222457 89.9376321,19.2372563 90.5065774,19.2372563 C91.2999765,19.2372563 92.1065304,19.7132957 92.1196852,20.5593141 L92.1196852,20.6653747 C91.84179,20.5066949 91.2465351,20.268264 90.5197322,20.268264 C89.0521494,20.268264 87.5574348,21.0748179 87.5574348,22.5826873 C87.5574348,23.9581865 88.7610994,24.8436693 90.1094668,24.8436693 C91.1412967,24.8436693 91.7094198,24.3807846 92.0662438,23.8389711 L92.118863,23.8389711 L92.118863,24.6323702 L93.5996007,24.6323702 L93.5996007,20.6916843 C93.5996007,18.8664553 92.2380785,17.8486023 90.4794456,17.8486023 Z M90.2944562,23.4813249 C89.7921071,23.4813249 89.0907916,23.2297393 89.0907916,22.6081748 C89.0907916,21.8147757 89.9639417,21.5105708 90.7170543,21.5105708 C91.391238,21.5105708 91.7085976,21.6560958 92.118863,21.8542401 C91.9996476,22.8071412 91.1799389,23.4813249 90.2944562,23.4813249 Z M98.9947146,18.0730561 L97.2360817,22.5292459 L97.1834625,22.5292459 L95.3590557,18.0730561 L93.7064834,18.0730561 L96.4435048,24.3010336 L94.8830162,27.7656801 L96.4829692,27.7656801 L100.70155,18.0730561 L98.9947146,18.0730561 Z M85.1764153,24.6488137 L86.7105943,24.6488137 L86.7105943,14.370801 L85.1764153,14.370801 L85.1764153,24.6488137 Z"/>
    <g transform="translate(0 4.32)">
      <path fill="#5BC9F4" d="M1.15387049,0.439837741 C0.919880028,0.687497748 0.782380478,1.07104912 0.782380478,1.56878141 L0.782380478,19.3375829 C0.782380478,19.8353151 0.920684119,20.2188665 1.15387049,20.4665265 L1.21337322,20.5244211 L11.1672149,10.5705794 L11.1672149,10.4531821 L11.1672149,10.3357849 L1.21337322,0.381943193 L1.15387049,0.439837741 Z"/>
      <path fill="url(#a)" d="M14.48409,13.8898668 L11.1664108,10.5705794 L11.1664108,10.4531821 L11.1664108,10.3357849 L14.4848941,7.01730158 L14.5596745,7.05991839 L18.4908751,9.29368301 C19.613386,9.93132712 19.613386,10.9758412 18.4908751,11.6134854 L14.5596745,13.84725 L14.48409,13.8898668 Z"/>
      <path fill="url(#b)" d="M14.5604786,13.8464459 L11.1672149,10.4531821 L1.15387049,20.4665265 C1.52375232,20.8581188 2.13486143,20.9063643 2.82316327,20.5155761 L14.5604786,13.8464459"/>
      <path fill="url(#c)" d="M14.5604786,7.05991839 L2.82396736,0.390788194 C2.13566552,8.32667268e-17 1.52455641,0.048245456 1.15467458,0.439837741 L11.1672149,10.4531821 L14.5604786,7.05991839 Z"/>
    </g>
    <g transform="translate(31)">
      <use fill="#000000" xlink:href="#d"/>
      <use fill="#FFFFFF" xlink:href="#d"/>
    </g>
  </g>
</svg>
