<svg width="18" height="18" viewBox="0 0 18 18" xmlns="http://www.w3.org/2000/svg"><path d="M11.777 4.296c.326-.784.212-1.634-.31-2.156-.327-.327-.785-.507-1.291-.507-.686 0-1.372.327-1.927.948C7.497.898 6.142 0 4.835 0 4.18 0 3.593.229 3.169.653c-.67.67-.817 1.78-.392 2.826.114.261.375.784.898 1.29H0V18h13.23V4.77h-1.72c.11-.158.204-.316.267-.474zM4.214 1.699c.196-.196.441-.229.637-.229.948 0 2.222 1.03 2.483 3.3v.016h-.261C5.407 4.54 4.475 3.708 4.149 2.924c-.196-.49-.18-.98.065-1.225zm3.136 14.83H1.47V6.257h4.998L4.41 8.314v2.074l2.94-2.94v9.082zM8.804 4.803c.229-1.176.882-1.699 1.372-1.699.065 0 .18.017.245.082.082.082.098.294 0 .555-.18.425-.67.883-1.552 1.062h-.065zm2.956 11.744H8.82V7.448l1.47 1.47V6.844l-.588-.588h2.058v10.29z" fill="#fff"/></svg>