<svg xmlns="http://www.w3.org/2000/svg" width="99" height="29" viewBox="0 0 99 29" xmlns:xlink="http://www.w3.org/1999/xlink">
  <defs>
    <path id="a" d="M35.828125,6.11279297 L35.828125,5.40966797 L36.6850586,5.40966797 C37.4321289,5.40966797 37.9594727,4.93945312 37.9594727,4.27587891 C37.9594727,3.63867188 37.4980469,3.21240234 36.6982422,3.21240234 C35.9160156,3.21240234 35.4018555,3.61230469 35.3359375,4.28466797 L34.5668945,4.28466797 C34.6459961,3.18603516 35.4677734,2.50927734 36.7290039,2.50927734 C37.9199219,2.50927734 38.7636719,3.21679688 38.7636719,4.20556641 C38.7636719,4.89550781 38.3066406,5.49316406 37.6298828,5.66015625 L37.6298828,5.73046875 C38.4384766,5.81396484 39.0361328,6.38085938 39.0361328,7.29052734 C39.0361328,8.33642578 38.0385742,9.14941406 36.7597656,9.14941406 C35.4194336,9.14941406 34.496582,8.42871094 34.4394531,7.34765625 L35.2041016,7.34765625 C35.2744141,8.01123047 35.8720703,8.44628906 36.7509766,8.44628906 C37.6430664,8.44628906 38.2231445,7.95410156 38.2231445,7.26855469 C38.2231445,6.55664062 37.6782227,6.11279297 36.7202148,6.11279297 L35.828125,6.11279297 Z M41.734375,8.41992188 C42.512207,8.41992188 43.0878906,7.91015625 43.0878906,7.23339844 L43.0878906,6.79833984 L41.8134766,6.88183594 C41.0927734,6.93017578 40.7763672,7.18066406 40.7763672,7.65527344 C40.7763672,8.13867188 41.1850586,8.41992188 41.734375,8.41992188 Z M41.59375,9.08349609 C40.675293,9.08349609 39.9941406,8.53857422 39.9941406,7.67285156 C39.9941406,6.82470703 40.6181641,6.33691406 41.7211914,6.27099609 L43.0878906,6.1875 L43.0878906,5.75683594 C43.0878906,5.17236328 42.7231445,4.8515625 42.015625,4.8515625 C41.4487305,4.8515625 41.0532227,5.06689453 40.9477539,5.44042969 L40.1831055,5.44042969 C40.2841797,4.68017578 41.03125,4.17919922 42.0419922,4.17919922 C43.1977539,4.17919922 43.84375,4.77246094 43.84375,5.75683594 L43.84375,9 L43.1230469,9 L43.1230469,8.30126953 L43.0527344,8.30126953 C42.7451172,8.80664062 42.2265625,9.08349609 41.59375,9.08349609 Z M47.2363281,4.89550781 L46.0805664,4.89550781 L46.0805664,6.23144531 L47.1132812,6.23144531 C47.7285156,6.23144531 48.0053711,5.99853516 48.0053711,5.5546875 C48.0053711,5.15917969 47.7680664,4.89550781 47.2363281,4.89550781 Z M47.1791992,6.86425781 L46.0805664,6.86425781 L46.0805664,8.3671875 L47.3242188,8.3671875 C47.9042969,8.3671875 48.2119141,8.10351562 48.2119141,7.62451172 C48.2119141,7.09716797 47.8603516,6.86425781 47.1791992,6.86425781 Z M45.324707,9 L45.324707,4.26269531 L47.3330078,4.26269531 C48.2294922,4.26269531 48.7524414,4.74169922 48.7524414,5.47558594 C48.7524414,5.94140625 48.4228516,6.38085938 47.9790039,6.47314453 L47.9790039,6.54345703 C48.5810547,6.62695312 48.9633789,7.06640625 48.9633789,7.63769531 C48.9633789,8.46386719 48.3613281,9 47.3417969,9 L45.324707,9 Z M51.71875,8.41992188 C52.496582,8.41992188 53.0722656,7.91015625 53.0722656,7.23339844 L53.0722656,6.79833984 L51.7978516,6.88183594 C51.0771484,6.93017578 50.7607422,7.18066406 50.7607422,7.65527344 C50.7607422,8.13867188 51.1694336,8.41992188 51.71875,8.41992188 Z M51.578125,9.08349609 C50.659668,9.08349609 49.9785156,8.53857422 49.9785156,7.67285156 C49.9785156,6.82470703 50.6025391,6.33691406 51.7055664,6.27099609 L53.0722656,6.1875 L53.0722656,5.75683594 C53.0722656,5.17236328 52.7075195,4.8515625 52,4.8515625 C51.4331055,4.8515625 51.0375977,5.06689453 50.9321289,5.44042969 L50.1674805,5.44042969 C50.2685547,4.68017578 51.015625,4.17919922 52.0263672,4.17919922 C53.1821289,4.17919922 53.828125,4.77246094 53.828125,5.75683594 L53.828125,9 L53.1074219,9 L53.1074219,8.30126953 L53.0371094,8.30126953 C52.7294922,8.80664062 52.2109375,9.08349609 51.578125,9.08349609 Z M58.4291992,9 L58.4291992,6.85546875 L56.0649414,6.85546875 L56.0649414,9 L55.309082,9 L55.309082,4.26269531 L56.0649414,4.26269531 L56.0649414,6.22265625 L58.4291992,6.22265625 L58.4291992,4.26269531 L59.1850586,4.26269531 L59.1850586,9 L58.4291992,9 Z M64.1201172,4.26269531 L64.1201172,4.89550781 L62.5820312,4.89550781 L62.5820312,9 L61.8261719,9 L61.8261719,4.89550781 L60.2880859,4.89550781 L60.2880859,4.26269531 L64.1201172,4.26269531 Z M66.6206055,8.41992188 C67.3984375,8.41992188 67.9741211,7.91015625 67.9741211,7.23339844 L67.9741211,6.79833984 L66.699707,6.88183594 C65.9790039,6.93017578 65.6625977,7.18066406 65.6625977,7.65527344 C65.6625977,8.13867188 66.0712891,8.41992188 66.6206055,8.41992188 Z M66.4799805,9.08349609 C65.5615234,9.08349609 64.8803711,8.53857422 64.8803711,7.67285156 C64.8803711,6.82470703 65.5043945,6.33691406 66.6074219,6.27099609 L67.9741211,6.1875 L67.9741211,5.75683594 C67.9741211,5.17236328 67.609375,4.8515625 66.9018555,4.8515625 C66.3349609,4.8515625 65.9394531,5.06689453 65.8339844,5.44042969 L65.0693359,5.44042969 C65.1704102,4.68017578 65.9174805,4.17919922 66.9282227,4.17919922 C68.0839844,4.17919922 68.7299805,4.77246094 68.7299805,5.75683594 L68.7299805,9 L68.0092773,9 L68.0092773,8.30126953 L67.9389648,8.30126953 C67.6313477,8.80664062 67.112793,9.08349609 66.4799805,9.08349609 Z M70.703125,9 L69.7583008,9 L71.8457031,6.50390625 L69.8286133,4.26269531 L70.7470703,4.26269531 L72.4477539,6.2578125 L72.6850586,6.2578125 L72.6850586,4.26269531 L73.4233398,4.26269531 L73.4233398,6.2578125 L73.6606445,6.2578125 L75.3613281,4.26269531 L76.2666016,4.26269531 L74.2626953,6.48632812 L76.3632812,9 L75.4052734,9 L73.6606445,6.82910156 L73.4233398,6.82910156 L73.4233398,9 L72.6850586,9 L72.6850586,6.82910156 L72.4477539,6.82910156 L70.703125,9 Z M80.5380859,4.26269531 L80.5380859,4.89550781 L79,4.89550781 L79,9 L78.2441406,9 L78.2441406,4.89550781 L76.7060547,4.89550781 L76.7060547,4.26269531 L80.5380859,4.26269531 Z M83.359375,4.84716797 C82.6035156,4.84716797 82.0761719,5.40087891 82.019043,6.24023438 L84.6293945,6.24023438 C84.6118164,5.40087891 84.1108398,4.84716797 83.359375,4.84716797 Z M84.6074219,7.77392578 L85.3632812,7.77392578 C85.1347656,8.58691406 84.4052734,9.08349609 83.3681641,9.08349609 C82.0541992,9.08349609 81.2324219,8.13427734 81.2324219,6.63574219 C81.2324219,5.14599609 82.0673828,4.17919922 83.3681641,4.17919922 C84.6469727,4.17919922 85.4248047,5.08886719 85.4248047,6.56103516 L85.4248047,6.85107422 L82.019043,6.85107422 L82.019043,6.88623047 C82.0585938,7.82226562 82.581543,8.41552734 83.3857422,8.41552734 C83.996582,8.41552734 84.409668,8.19140625 84.6074219,7.77392578 Z M91.1464844,4.89550781 L89.9907227,4.89550781 L89.9907227,6.23144531 L91.0234375,6.23144531 C91.6386719,6.23144531 91.9155273,5.99853516 91.9155273,5.5546875 C91.9155273,5.15917969 91.6782227,4.89550781 91.1464844,4.89550781 Z M91.0893555,6.86425781 L89.9907227,6.86425781 L89.9907227,8.3671875 L91.234375,8.3671875 C91.8144531,8.3671875 92.1220703,8.10351562 92.1220703,7.62451172 C92.1220703,7.09716797 91.7705078,6.86425781 91.0893555,6.86425781 Z M89.2348633,9 L89.2348633,4.26269531 L91.2431641,4.26269531 C92.1396484,4.26269531 92.6625977,4.74169922 92.6625977,5.47558594 C92.6625977,5.94140625 92.3330078,6.38085938 91.8891602,6.47314453 L91.8891602,6.54345703 C92.4912109,6.62695312 92.8735352,7.06640625 92.8735352,7.63769531 C92.8735352,8.46386719 92.2714844,9 91.2519531,9 L89.2348633,9 Z"/>
  </defs>
  <g fill="none" fill-rule="evenodd">
    <path fill="#FFFFFF" d="M18.5453436 14.674522C18.5143821 11.2335242 21.3628408 9.55946753 21.4930926 9.48152994 19.8798913 7.12952307 17.3794828 6.80816398 16.5008166 6.78254066 14.4007723 6.56153956 12.3637187 8.03915078 11.2939452 8.03915078 10.202819 8.03915078 8.55545334 6.80389343 6.77997107 6.84019312 4.4952254 6.87542518 2.35781379 8.19822887 1.18554709 10.2523647-1.23372099 14.4407092.570587507 20.5956432 2.88842996 23.9811238 4.04788501 25.6391659 5.40271784 27.4904505 7.17606483 27.4253246 8.91097684 27.3537928 9.55903321 26.3192514 11.6526716 26.3192514 13.7270926 26.3192514 14.3356464 27.4253246 16.1442254 27.3836867 18.0061864 27.3537928 19.1784531 25.7181711 20.2973379 24.0451821 21.6372238 22.1447862 22.1753134 20.2732165 22.1966662 20.1771291 22.152893 20.1621821 18.5805757 18.7988082 18.5453436 14.674522zM15.1289015 4.55544745C16.0620173 3.38851894 16.7004649 1.80094099 16.523237.189875 15.1726747.249662737 13.4836711 1.12405839 12.5110527 2.26536359 11.6505364 3.27107874 10.8818369 4.91951207 11.0804176 6.46972268 12.5975314 6.58289233 14.1552155 5.70422612 15.1289015 4.55544745zM43.3426521 25.8341068L41.5206544 25.8341068 40.5226072 22.6979602 37.0535108 22.6979602 36.1027987 25.8341068 34.3289384 25.8341068 37.7659432 15.1572486 39.8887992 15.1572486 43.3426521 25.8341068zM40.221749 21.3822067L39.3191742 18.5942534C39.2237018 18.3094409 39.0447914 17.6387276 38.7808384 16.5829156L38.7487469 16.5829156C38.6436471 17.037011 38.4743642 17.7077244 38.2417004 18.5942534L37.3551714 21.3822067 40.221749 21.3822067 40.221749 21.3822067zM52.1814668 21.8900555C52.1814668 23.1993906 51.8276575 24.2343431 51.1200389 24.9941105 50.4862308 25.6704399 49.6991855 26.0082034 48.7597055 26.0082034 47.7456125 26.0082034 47.0171344 25.6439644 46.5734687 24.9154862L46.5413772 24.9154862 46.5413772 28.9710557 44.8308976 28.9710557 44.8308976 20.6697743C44.8308976 19.8466261 44.8092358 19.0018161 44.7675168 18.1353443L46.2718082 18.1353443 46.3672805 19.3556254 46.3993721 19.3556254C46.9697993 18.4362026 47.8354689 17.9772934 48.9971829 17.9772934 49.9053737 17.9772934 50.6635366 18.3359165 51.2700668 19.0539649 51.8782017 19.7728156 52.1814668 20.7179117 52.1814668 21.8900555zM50.4388957 21.952634C50.4388957 21.2032963 50.2704151 20.585534 49.9318493 20.0993471 49.5619942 19.5923006 49.0653775 19.3387774 48.4428014 19.3387774 48.0207976 19.3387774 47.6373036 19.4799802 47.2947263 19.7583744 46.9513467 20.0391754 46.7267059 20.4058213 46.621606 20.8599168 46.568655 21.071721 46.5421795 21.2450153 46.5421795 21.3814044L46.5421795 22.6650664C46.5421795 23.2250639 46.7138692 23.6976119 47.0572488 24.0835128 47.4006284 24.4694137 47.8467009 24.661963 48.3954664 24.661963 49.0397042 24.661963 49.5411347 24.4132535 49.8997577 23.917439 50.2591831 23.4208223 50.4388957 22.7661547 50.4388957 21.952634zM61.0363274 21.8900555C61.0363274 23.1993906 60.682518 24.2343431 59.9740971 24.9941105 59.3410913 25.6704399 58.5540461 26.0082034 57.614566 26.0082034 56.6004731 26.0082034 55.8719949 25.6439644 55.4291315 24.9154862L55.39704 24.9154862 55.39704 28.9710557 53.6865605 28.9710557 53.6865605 20.6697743C53.6865605 19.8466261 53.6648987 19.0018161 53.6231796 18.1353443L55.127471 18.1353443 55.2229433 19.3556254 55.2550349 19.3556254C55.8246599 18.4362026 56.6903294 17.9772934 57.8528457 17.9772934 58.7602343 17.9772934 59.5183971 18.3359165 60.126532 19.0539649 60.7322599 19.7728156 61.0363274 20.7179117 61.0363274 21.8900555zM59.2937563 21.952634C59.2937563 21.2032963 59.1244734 20.585534 58.7859075 20.0993471 58.4160524 19.5923006 57.9210403 19.3387774 57.297662 19.3387774 56.8748558 19.3387774 56.4921641 19.4799802 56.1487845 19.7583744 55.8054049 20.0391754 55.5815664 20.4058213 55.4764666 20.8599168 55.4243178 21.071721 55.39704 21.2450153 55.39704 21.3814044L55.39704 22.6650664C55.39704 23.2250639 55.5687298 23.6976119 55.9105048 24.0835128 56.2538843 24.4686114 56.6999569 24.661963 57.2503269 24.661963 57.8945648 24.661963 58.3959952 24.4132535 58.7546183 23.917439 59.1140436 23.4208223 59.2937563 22.7661547 59.2937563 21.952634zM70.9365701 22.8399653C70.9365701 23.7481561 70.6212706 24.487064 69.9882648 25.0574913 69.2926805 25.6808696 68.324318 25.9921577 67.0799682 25.9921577 65.9310908 25.9921577 65.0100634 25.770726 64.3128745 25.3270603L64.7092051 23.9013933C65.4601473 24.3554887 66.2840978 24.5833387 67.1818589 24.5833387 67.8260967 24.5833387 68.3275272 24.4373221 68.6877548 24.1468936 69.0463779 23.8564651 69.2252883 23.4665528 69.2252883 22.9803658 69.2252883 22.5471299 69.0776671 22.1820886 68.7816226 21.886044 68.4871826 21.5899995 67.9953797 21.3148145 67.3086205 21.0604889 65.4392878 20.3633 64.5054238 19.3419865 64.5054238 17.9989552 64.5054238 17.1212514 64.8327576 16.4015984 65.4882274 15.8416009 66.1412904 15.280801 67.012576 15.0008023 68.1020841 15.0008023 69.0736557 15.0008023 69.8807581 15.1700852 70.524996 15.5078488L70.0973761 16.9022265C69.4956596 16.5748927 68.8153187 16.4112258 68.0539467 16.4112258 67.4522302 16.4112258 66.982089 16.5596493 66.6451278 16.8548915 66.3603153 17.1188445 66.2175079 17.4405623 66.2175079 17.8216494 66.2175079 18.2436533 66.3803725 18.5926489 66.7077063 18.8670316 66.9925188 19.1205548 67.509995 19.3949376 68.2609372 19.6909821 69.1795578 20.0608372 69.8542826 20.4932708 70.2883208 20.9890852 70.7207544 21.4832951 70.9365701 22.1018597 70.9365701 22.8399653zM76.5919032 19.4190062L74.7065248 19.4190062 74.7065248 23.1568693C74.7065248 24.1075815 75.0386723 24.5825364 75.7045719 24.5825364 76.0102439 24.5825364 76.2637671 24.5560609 76.4643393 24.5031098L76.5116744 25.8020152C76.1747131 25.9279746 75.7310474 25.9913554 75.1814797 25.9913554 74.5059526 25.9913554 73.9780466 25.7851672 73.5969595 25.3735931 73.2174769 24.9612167 73.0265322 24.2696438 73.0265322 23.2980722L73.0265322 19.4174017 71.903328 19.4174017 71.903328 18.1337397 73.0265322 18.1337397 73.0265322 16.7241184 74.7065248 16.217072 74.7065248 18.1337397 76.5919032 18.1337397 76.5919032 19.4190062zM85.0985705 21.9213447C85.0985705 23.1047206 84.7600046 24.0762922 84.0844775 24.8360596 83.3760566 25.6182911 82.4357742 26.0082034 81.2636304 26.0082034 80.1340079 26.0082034 79.2346422 25.6335346 78.5639289 24.8841969 77.8932155 24.1348593 77.5578588 23.1889609 77.5578588 22.0489086 77.5578588 20.8559053 77.902843 19.8787177 78.5952181 19.1189503 79.2859887 18.3583806 80.2182482 17.9780957 81.390392 17.9780957 82.5200145 17.9780957 83.4290076 18.3527645 84.1149645 19.1029045 84.7712367 19.8305803 85.0985705 20.7700604 85.0985705 21.9213447zM83.3239078 21.9767027C83.3239078 21.2666771 83.1722753 20.65774 82.8649987 20.1498912 82.5063756 19.5353381 81.9937131 19.2288638 81.3294181 19.2288638 80.6418567 19.2288638 80.1195667 19.5361404 79.7609436 20.1498912 79.4536671 20.6585423 79.3020345 21.2771069 79.3020345 22.0087942 79.3020345 22.7188197 79.4536671 23.3277569 79.7609436 23.8348033 80.1307987 24.4493565 80.6474727 24.7558308 81.3141746 24.7558308 81.9672376 24.7558308 82.4799001 24.4429382 82.8497552 23.8187575 83.1650547 23.3012813 83.3239078 22.6859259 83.3239078 21.9767027zM90.6584312 19.6396356C90.4891483 19.6083464 90.3086334 19.5923006 90.1192932 19.5923006 89.5175767 19.5923006 89.0522492 19.8193483 88.7249154 20.274246 88.4401029 20.6753904 88.2972956 21.1824368 88.2972956 21.7945831L88.2972956 25.8341068 86.5876183 25.8341068 86.6036641 20.5598608C86.6036641 19.6725295 86.5820023 18.8646247 86.539481 18.1361466L88.0293311 18.1361466 88.0919096 19.6091487 88.1392447 19.6091487C88.3197596 19.1029045 88.6045721 18.6953418 88.9944845 18.3896698 89.3755716 18.1144848 89.7871457 17.9772934 90.2308114 17.9772934 90.3888622 17.9772934 90.5316696 17.9885255 90.6584312 18.0085827L90.6584312 19.6396356zM98.3082541 21.6204865C98.3082541 21.9269607 98.2881969 22.1852977 98.2456756 22.3962996L93.114237 22.3962996C93.1342942 23.1568693 93.3822014 23.7385287 93.8587609 24.139673 94.2911945 24.4982961 94.8503898 24.6780087 95.5371489 24.6780087 96.2969163 24.6780087 96.9900938 24.5568632 97.6134721 24.3137697L97.8814365 25.501157C97.1529584 25.8188633 96.2929049 25.9769142 95.3004737 25.9769142 94.1066681 25.9769142 93.1695949 25.6255117 92.4876495 24.9235091 91.8073087 24.2215065 91.466336 23.2788172 91.466336 22.0962437 91.466336 20.9353319 91.78324 19.968574 92.4178504 19.1975745 93.0821454 18.3744263 93.9799065 17.9628522 95.109529 17.9628522 96.2190943 17.9628522 97.0590906 18.3744263 97.6295179 19.1975745 98.0812064 19.8514398 98.3082541 20.6601469 98.3082541 21.6204865zM96.6772012 21.1768208C96.6884332 20.6697743 96.5769151 20.2317247 96.3450536 19.8618696 96.0490091 19.3861124 95.5941114 19.1486349 94.9819651 19.1486349 94.4227699 19.1486349 93.9678722 19.3804964 93.6204812 19.8458238 93.3356687 20.2156789 93.1663858 20.6593446 93.114237 21.1760185L96.6772012 21.1760185 96.6772012 21.1768208z"/>
    <g fill-rule="nonzero">
      <use fill="#000000" xlink:href="#a"/>
      <use fill="#FFFFFF" xlink:href="#a"/>
    </g>
  </g>
</svg>
