<svg xmlns="http://www.w3.org/2000/svg" viewBox="0 0 18 18"><defs><style>.a,.b{fill:none;}.b{stroke:#fff;stroke-width:2px;}.c{fill:#fff;}</style></defs><title>Asset 2</title><rect class="a" width="18" height="18" rx="0.8" ry="0.8"/><path class="b" d="M12.4,2.3h1.9a1.5,1.5,0,0,1,1.5,1.5V5.6m0,6.8v1.9a1.5,1.5,0,0,1-1.5,1.5H12.4m-6.8,0H3.8a1.5,1.5,0,0,1-1.5-1.5V12.4m0-6.7V3.8A1.5,1.5,0,0,1,3.8,2.3H5.6"/><path class="c" d="M5.3,6H6.8V7.5H5.3Zm6,0h1.5V7.5H11.3Z"/><path class="b" d="M9,4.5V8.1A1.5,1.5,0,0,1,7.5,9.6H7.3M6.5,12a4.5,4.5,0,0,0,5,0"/></svg>