<svg xmlns="http://www.w3.org/2000/svg" width="18" height="18" viewBox="0 0 18 18">
  <path fill="#FFFFFF" d="M10.6083944,6.15178609 C10.635378,6.15128367 10.6614295,6.16293346 10.6807346,6.18416983 C10.7000398,6.20540621 10.7109918,6.23446154 10.7111463,6.26485131 C10.7099584,6.9570816 10.7022372,10.6991381 10.7010493,13.7262243 L10.7010493,14.5689394 C10.7010493,17.8307822 8.10433578,17.9919681 7.02930113,17.999998 L6.10275193,17.999998 C6.04656105,18.0003661 6.00065242,17.9495661 6,17.8862943 L6,15.8544144 C6,15.7915452 6.04751534,15.7420525 6.10334587,15.7407148 C7.73193427,15.7246631 8.0051475,14.8471693 8.0051475,14.2492428 C8.0051475,13.6807444 8.02296575,7.20320793 8.02593546,6.26485131 C8.02593546,6.20198209 8.07226292,6.15178609 8.12928133,6.15178609 L10.6083944,6.15178609 Z M11.1007721,2.70738957 L11.1007721,3.35949057 C11.0972922,4.0726017 10.7016677,4.70861418 10.1077014,4.95596757 L8.01940209,5.84349374 L8.01940209,4.01694213 L11.1001782,2.70738957 L11.1007721,2.70738957 Z M12,0 L12,0.645412781 C11.9968356,1.36145694 11.5983097,1.99965895 11.0009899,2.24523389 L8.01940209,3.49459252 L8.01940209,1.66737209 L11.9994061,0 L12,0 Z"/>
</svg>
