<svg xmlns="http://www.w3.org/2000/svg" width="18" height="18" viewBox="0 0 18 18">
  <g fill="none" fill-rule="evenodd">
    <path fill="#FFFFFF" d="M9,6 C9.828,6 10.5,6.672 10.5,7.5 C10.5,8.328 9.828,9 9,9 C8.172,9 7.5,8.328 7.5,7.5 C7.5,6.672 8.172,6 9,6 Z"/>
    <path stroke="#FFFFFF" stroke-width="1.5" d="M9.56018562,15.5084962 C12.6867285,11.9964597 14.25,9.32696098 14.25,7.5 C14.25,4.60050506 11.8994949,2.25 9,2.25 C6.10050506,2.25 3.75,4.60050506 3.75,7.5 C3.75,9.32695551 5.3132621,11.9964437 8.4397863,15.5084646 L8.43975135,15.5084958 C8.71518962,15.8178952 9.1892943,15.8454262 9.49869379,15.569988 C9.52036307,15.5506972 9.54089485,15.5301655 9.56018562,15.5084962 Z"/>
    <rect width="18" height="18"/>
  </g>
</svg>
