<svg xmlns="http://www.w3.org/2000/svg" width="133" height="24" viewBox="0 0 133 24">
    <g>
        <path d="M83.389 3.768L92.762 3.768 92.762 23.334 96.547 23.334 96.547 3.768 105.919 3.768 105.919 0 83.389 0zM72.665 8.05h-7.029c-1.171 0-2.133-.965-2.133-2.141 0-1.176.962-2.14 2.133-2.14h9.342V0h-9.342c-3.244 0-5.888 2.653-5.888 5.909s2.644 5.909 5.888 5.909h7.03c2.132 0 3.844 1.748 3.844 3.858 0 2.14-1.742 3.86-3.845 3.86H61.13v3.768h11.535c4.206 0 7.63-3.437 7.63-7.658 0-4.16-3.424-7.597-7.63-7.597zM41.454 0h-7.48v3.768h7.48c3.845 0 6.97 3.106 7.03 6.934-1.953-1.658-4.476-2.623-7.03-2.623H29.83v4.402c0 5.969 4.836 10.823 10.784 10.823h11.625V10.823C52.238 4.853 47.402 0 41.454 0zm-7.87 11.878h7.87c3.875 0 7.03 3.165 7.03 7.054v.633h-7.87c-3.876 0-7.03-3.165-7.03-7.054v-.633zM121.6 0h-7.45v3.768h7.48c3.844 0 6.969 3.106 7.029 6.934-1.953-1.658-4.476-2.623-7.03-2.623h-11.625v4.402c0 5.969 4.837 10.823 10.785 10.823h11.625V10.823C132.384 4.853 127.548 0 121.6 0zm7.028 18.932v.633h-7.87c-3.875 0-7.029-3.165-7.029-7.054v-.633h7.87c3.875 0 7.03 3.165 7.03 7.054zM14.72 9.828C18.143 7.748 20.606 4.25 21.297 0h-3.845C16.432 4.673 12.226 8.11 7.39 8.11H3.755V0H0v23.334h3.755V11.878H7.69c6.278 0 11.385 5.125 11.385 11.426h3.755c.03-5.819-3.274-10.914-8.11-13.476z"/>
    </g>
</svg>
