<svg xmlns="http://www.w3.org/2000/svg" width="24" height="24" viewBox="0 0 24 24">
    <g fill="none" fill-rule="evenodd">
        <g fill-rule="nonzero" stroke="#000" stroke-width="2">
            <g>
                <g>
                    <g>
                        <path d="M11.503 17.868c.311-.16.682-.16.994 0l3.906 2.011c.208.108.445.145.677.106.586-.099.98-.649.882-1.23l-.731-4.272c-.06-.345.056-.697.309-.941l3.135-3.03c.169-.163.279-.377.313-.608.087-.582-.32-1.124-.908-1.21l-4.35-.635c-.348-.051-.65-.267-.806-.579l-1.96-3.89c-.105-.207-.274-.374-.483-.478-.533-.262-1.18-.048-1.445.478l-1.96 3.89c-.157.312-.458.528-.806.579l-4.35.635c-.233.034-.449.143-.614.31-.415.421-.407 1.096.019 1.508l3.135 3.03c.253.244.368.596.31.94l-.732 4.274c-.039.228-.001.464.107.67.274.522.925.725 1.452.453l3.906-2.011z" transform="translate(-82 -72) translate(70 56) translate(0 8) translate(12 8)"/>
                    </g>
                </g>
            </g>
        </g>
    </g>
</svg>
