<svg width="24" height="32" viewBox="0 0 24 32" fill="none" xmlns="http://www.w3.org/2000/svg">
<path d="M5.2844 12.3871V11.1484C4.04569 10.1161 3.21988 8.56777 3.21988 6.8129C3.21988 3.71613 5.8005 1.13546 8.89733 1.13546C11.9941 1.13546 14.5748 3.71607 14.5748 6.8129C14.5748 8.15481 14.0587 9.49677 13.2328 10.4258C13.6457 10.4258 13.9555 10.5291 14.3683 10.6323C15.1941 9.49683 15.607 8.15487 15.607 6.7097C15.607 2.99352 12.6135 0 8.89733 0C5.1812 0 2.18762 2.99352 2.18762 6.70965C2.18762 9.08387 3.42633 11.1484 5.2844 12.3871Z" fill="white"/>
<path d="M13.5426 6.70971C13.5426 4.12909 11.4781 2.06458 8.89745 2.06458C6.31678 2.06458 4.25232 4.12909 4.25232 6.70971C4.25232 7.84522 4.66522 8.87748 5.28458 9.60003V6.70971C5.28458 4.74845 6.93619 3.09678 8.89751 3.09678C10.8588 3.09678 12.5104 4.74839 12.5104 6.70971V9.60003C13.1297 8.87748 13.5426 7.84522 13.5426 6.70971Z" fill="white"/>
<path d="M21.2845 14.4516C20.6651 14.4516 20.149 14.6581 19.7361 14.9677C19.7361 13.5225 18.6006 12.3871 17.1555 12.3871C16.5361 12.3871 15.9167 12.5935 15.4005 13.0064C14.9877 11.9742 14.0587 11.3548 13.0264 11.3548C12.4071 11.3548 11.8909 11.5613 11.478 11.8709V6.70965C11.478 5.26449 10.3425 4.12903 8.89738 4.12903C7.45227 4.12903 6.31676 5.26454 6.31676 6.70965V15.8968C4.25224 14.0387 1.98127 12.5935 0.536105 14.0387C-1.52841 16.1032 2.80708 20.129 6.1103 26.2193C8.48453 30.4516 11.7878 32 15.091 32C19.9426 32 23.8652 28.0774 23.8652 23.2258V17.0323C23.8652 15.5871 22.7297 14.4516 21.2845 14.4516ZM22.8329 19.3032V23.2258C22.8329 27.2517 19.3232 30.9678 15.0909 30.9678C11.1684 30.9678 8.89738 28.8001 7.03931 25.8065C3.01347 18.9936 0.123147 15.8968 1.25866 14.7613C2.39417 13.6259 5.18124 16.1032 7.34896 18.3742V6.70965C7.34896 5.88384 8.07157 5.16123 8.89738 5.16123C9.72319 5.16123 10.4458 5.88384 10.4458 6.70965V17.5483H11.4781V13.9354C11.4781 13.1096 12.2006 12.387 13.0265 12.387C13.8522 12.387 14.5749 13.1096 14.5749 13.9354V16.5161H15.6071V14.9677C15.6071 14.1419 16.3297 13.4193 17.1556 13.4193C17.9813 13.4193 18.704 14.1419 18.704 14.9677V17.5483H19.7362V17.0322C19.7362 16.2064 20.4588 15.4838 21.2847 15.4838C22.1104 15.4838 22.8331 16.2064 22.8331 17.0322V19.3032H22.8329Z" fill="white"/>
</svg>
