<svg width="192" height="192" viewBox="0 0 192 192" fill="none" xmlns="http://www.w3.org/2000/svg">
<g opacity="0.93">
<rect width="192" height="192" fill="#F9FAFB"/>
<g clip-path="url(#clip0)">
<path d="M111.346 81.1879C112.326 78.781 111.983 76.1735 110.414 74.5688C109.434 73.566 108.061 73.0144 106.541 73.0144C104.482 73.0144 102.423 74.0173 100.757 75.9227C98.5016 70.7579 94.4326 68 90.5108 68C88.5499 68 86.7851 68.702 85.5105 70.0058C83.5005 72.0616 83.0593 75.4714 84.3339 78.6807C84.6771 79.483 85.4614 81.0876 87.0302 82.642H76V123.259H98.0604H102.472H115.709V82.642H110.545C110.874 82.1573 111.156 81.6726 111.346 81.1879ZM88.6479 73.215C89.2362 72.6132 89.9716 72.513 90.5598 72.513C93.4032 72.513 97.227 75.672 98.0113 82.642V82.6922H97.227C92.2266 81.94 89.4323 79.3827 88.4519 76.9758C87.8636 75.4714 87.9126 73.9671 88.6479 73.215ZM98.0604 118.746H80.4121V87.2051H95.4131L89.2362 93.5233V99.8915L98.0604 90.8656V118.746V118.746ZM102.423 82.7423C103.11 79.1319 105.071 77.5274 106.541 77.5274C106.737 77.5274 107.081 77.5775 107.277 77.7781C107.522 78.0288 107.571 78.6807 107.277 79.4829C106.737 80.7867 105.267 82.1907 102.619 82.7423H102.472H102.423V82.7423ZM111.297 118.796H102.472V90.8656L106.884 95.3786V89.0103L105.12 87.2051H111.297V118.796Z" fill="#B7ECEC"/>
</g>
</g>
<defs>
<clipPath id="clip0">
<rect width="40" height="55" fill="white" transform="translate(76 68)"/>
</clipPath>
</defs>
</svg>
