<svg width="156" height="44" viewBox="0 0 156 44" fill="none" xmlns="http://www.w3.org/2000/svg">
<path d="M18.4986 7.97771C19.0117 6.70422 18.8321 5.32459 18.0111 4.47559C17.498 3.94496 16.7796 3.65312 15.9842 3.65312C14.9066 3.65312 13.829 4.18375 12.9567 5.19193C11.7765 2.45922 9.64696 1 7.59441 1C6.56814 1 5.6445 1.37143 4.97743 2.06125C3.92549 3.14903 3.69459 4.95315 4.36166 6.65115C4.54126 7.07565 4.95176 7.92465 5.77279 8.74711H0V30.2374H11.5456H13.8547H20.782V8.74711H18.0797C18.2516 8.49064 18.3994 8.23419 18.4986 7.97771ZM6.61946 3.75924C6.92734 3.44086 7.31219 3.38781 7.62008 3.38781C9.10817 3.38781 11.1094 5.05928 11.5199 8.74711V8.77365H11.1094C8.4924 8.37568 7.02997 7.02258 6.51684 5.74908C6.20895 4.95315 6.23461 4.15721 6.61946 3.75924ZM11.5456 27.8496H2.30911V11.1615H10.1601L6.92734 14.5044V17.8739L11.5456 13.0982V27.8496V27.8496ZM13.829 8.80018C14.1882 6.88992 15.2145 6.04094 15.9842 6.04094C16.0868 6.04094 16.2664 6.06746 16.369 6.17359C16.4973 6.30625 16.523 6.65115 16.369 7.07565C16.0868 7.76547 15.3171 8.50834 13.9317 8.80018H13.8547H13.829V8.80018ZM18.4729 27.8762H13.8547V13.0982L16.1638 15.4861V12.1166L15.2401 11.1615H18.4729V27.8762Z" fill="#14AEAD"/>
<path d="M40.9366 15.0349C40.9366 11.1613 38.294 8.72046 34.4968 8.72046H26.7484V30.2638H28.9806V21.4024H34.4968C38.294 21.4024 40.9366 18.9085 40.9366 15.0349ZM34.2915 19.3595H28.9806V10.7899H34.2915C36.8829 10.7899 38.7045 12.2226 38.7045 15.0614C38.7045 17.9003 36.8829 19.3595 34.2915 19.3595Z" fill="#14AEAD"/>
<path d="M49.1293 8.72046L41.4579 30.2638H43.8183L45.486 25.3821H54.5942L56.2619 30.2638H58.6479L51.0022 8.72046H49.1293V8.72046ZM46.1787 23.3922L50.1042 12.0103L53.9527 23.3922H46.1787Z" fill="#14AEAD"/>
<path d="M71.6592 20.5003C74.3531 19.9167 76.2004 17.8737 76.2004 14.7165C76.2004 10.9756 73.6347 8.72046 70.0171 8.72046H62.0378V30.2638H64.27V20.7126H69.2474L73.9939 30.2638H76.6109L71.6592 20.5003ZM64.27 18.6962V10.7899H69.8119C72.2492 10.7899 73.9683 12.1165 73.9939 14.7696C73.9939 17.3962 72.2749 18.6962 69.8375 18.6962H64.27V18.6962Z" fill="#14AEAD"/>
<path d="M83.7772 20.7922H92.9111V18.7227H83.7772V10.7899H94.4761V8.72046H81.5451V30.2904H83.7772V20.7922Z" fill="#14AEAD"/>
<path d="M112.928 8.72046H110.696V22.9677C110.696 26.2311 108.669 28.3801 105.642 28.3801C102.614 28.3801 100.613 26.2311 100.613 22.9677V8.72046H98.3807V23.1535C98.3807 27.4515 101.434 30.4496 105.642 30.4496C109.849 30.4496 112.928 27.4515 112.928 23.1535V8.72046V8.72046Z" fill="#14AEAD"/>
<path d="M136.138 30.2638V8.72046H133.906L127.286 24.0025L120.513 8.72046H118.281V30.2638H120.513V13.8941L126.312 26.8678H128.21L133.906 13.8941V30.2638H136.138Z" fill="#14AEAD"/>
<path d="M153.575 20.0493C152.703 19.2534 151.728 18.8289 149.778 18.537L147.494 18.1656C146.417 18.0064 145.339 17.5819 144.698 16.9982C144.056 16.441 143.774 15.5921 143.774 14.5308C143.774 12.143 145.391 10.5511 148.162 10.5511C150.342 10.5511 151.728 11.1879 153.011 12.4083L154.447 10.9226C152.651 9.25108 150.907 8.56128 148.238 8.56128C144.108 8.56128 141.568 10.9756 141.568 14.6369C141.568 16.3615 142.107 17.7146 143.158 18.6697C144.056 19.4921 145.339 20.0493 146.981 20.3146L149.419 20.7126C150.932 20.9514 151.471 21.1371 152.138 21.7473C152.805 22.331 153.139 23.3126 153.139 24.427C153.139 26.9209 151.266 28.4067 148.213 28.4067C145.878 28.4067 144.262 27.823 142.543 26.0454L141.029 27.6107C142.979 29.6271 145.031 30.4496 148.162 30.4496C152.472 30.4496 155.345 28.1148 155.32 24.3208C155.32 22.5167 154.704 21.0575 153.575 20.0493Z" fill="#14AEAD"/>
<path d="M66.3278 40.2576C65.9736 40.6121 65.4616 40.7854 64.879 40.7854H62.91V35.1782H64.879C65.4616 35.1782 65.9736 35.3515 66.3278 35.7057C66.9342 36.312 66.8951 37.1311 66.8951 37.9425C66.8951 38.7535 66.9342 39.6512 66.3278 40.2576ZM65.7452 36.3201C65.5087 36.0602 65.1937 35.9421 64.7923 35.9421H63.7606V40.0215H64.7923C65.1937 40.0215 65.5087 39.9034 65.7452 39.6435C66.0365 39.3204 66.0445 38.7141 66.0445 37.9425C66.0445 37.1706 66.0365 36.6428 65.7452 36.3201Z" fill="#14AEAD"/>
<path d="M69.8891 40.7849V35.1777H70.7396V40.7849H69.8891V40.7849Z" fill="#14AEAD"/>
<path d="M75.426 40.8319C74.5835 40.8319 73.9771 40.6353 73.4413 40.0918L74.0086 39.5326C74.418 39.9419 74.8668 40.068 75.4417 40.068C76.1742 40.068 76.5996 39.753 76.5996 39.2098C76.5996 38.9657 76.5287 38.7606 76.3789 38.6269C76.2374 38.4931 76.0956 38.4379 75.7648 38.3907L75.1033 38.2961C74.6464 38.2332 74.2842 38.0757 74.04 37.8472C73.7644 37.5874 73.6306 37.2328 73.6306 36.7763C73.6306 35.7997 74.3394 35.1301 75.5049 35.1301C76.2451 35.1301 76.7648 35.3191 77.2454 35.7683L76.7019 36.3037C76.3555 35.973 75.9538 35.8706 75.4812 35.8706C74.8196 35.8706 74.4574 36.2485 74.4574 36.7445C74.4574 36.9496 74.5203 37.1305 74.6701 37.2646C74.8119 37.3904 75.04 37.485 75.2999 37.5245L75.9381 37.6188C76.4578 37.6977 76.7491 37.8235 76.9852 38.0362C77.2926 38.3041 77.4421 38.7058 77.4421 39.1861C77.4421 40.2179 76.5996 40.8319 75.426 40.8319Z" fill="#14AEAD"/>
<path d="M82.1295 40.8319C81.5465 40.8319 81.0425 40.6195 80.6566 40.2336C80.1054 39.6821 80.1134 39.06 80.1134 37.981C80.1134 36.9021 80.1054 36.28 80.6566 35.7288C81.0425 35.3428 81.5465 35.1301 82.1295 35.1301C83.161 35.1301 83.9329 35.7365 84.1299 36.8549H83.2633C83.1295 36.288 82.7516 35.894 82.1295 35.894C81.7987 35.894 81.4994 36.0201 81.3024 36.2328C81.0268 36.5322 80.9639 36.8549 80.9639 37.981C80.9639 39.1075 81.0268 39.4302 81.3024 39.7296C81.4994 39.9419 81.7987 40.068 82.1295 40.068C82.7516 40.068 83.1376 39.6744 83.2713 39.1075H84.1299C83.9406 40.2255 83.1452 40.8319 82.1295 40.8319Z" fill="#14AEAD"/>
<path d="M90.2895 40.2336C89.9039 40.6195 89.4075 40.8319 88.8092 40.8319C88.2105 40.8319 87.7222 40.6195 87.3363 40.2336C86.7851 39.6821 86.7931 39.06 86.7931 37.981C86.7931 36.9021 86.7851 36.28 87.3363 35.7288C87.7222 35.3428 88.2105 35.1301 88.8092 35.1301C89.4075 35.1301 89.9039 35.3428 90.2895 35.7288C90.841 36.28 90.8253 36.9021 90.8253 37.981C90.8253 39.06 90.841 39.6821 90.2895 40.2336ZM89.644 36.2405C89.447 36.0281 89.14 35.894 88.8092 35.894C88.4784 35.894 88.1711 36.0281 87.9744 36.2405C87.6988 36.5399 87.6436 36.8549 87.6436 37.981C87.6436 39.1075 87.6988 39.4222 87.9744 39.7215C88.1711 39.9342 88.4784 40.068 88.8092 40.068C89.14 40.068 89.447 39.9342 89.644 39.7215C89.9196 39.4222 89.9748 39.1075 89.9748 37.981C89.9748 36.8549 89.9196 36.5399 89.644 36.2405Z" fill="#14AEAD"/>
<path d="M95.5522 40.7849H94.8906L93.0478 35.1777H93.9297L95.2214 39.2571L96.5127 35.1777H97.4108L95.5522 40.7849Z" fill="#14AEAD"/>
<path d="M99.9161 40.7849V35.1777H103.499V35.9416H100.767V37.5795H103.098V38.3357H100.767V40.021H103.499V40.7849H99.9161Z" fill="#14AEAD"/>
<path d="M109.494 40.7849L108.313 38.4223H107.25V40.7849H106.399V35.1777H108.573C109.636 35.1777 110.313 35.8627 110.313 36.8156C110.313 37.6189 109.825 38.131 109.195 38.3042L110.487 40.7849H109.494ZM108.51 35.9416H107.25V37.6979H108.51C109.077 37.6979 109.463 37.3748 109.463 36.8236C109.463 36.2724 109.077 35.9416 108.51 35.9416Z" fill="#14AEAD"/>
<path d="M119.183 40.7849H116.915V35.1777H119.096C120.136 35.1777 120.789 35.7684 120.789 36.7132C120.789 37.3196 120.412 37.7527 120.033 37.9025C120.466 38.0758 120.876 38.4932 120.876 39.2019C120.876 40.2337 120.175 40.7849 119.183 40.7849ZM119.025 35.9416H117.765V37.548H119.025C119.569 37.548 119.939 37.2647 119.939 36.7447C119.939 36.2249 119.569 35.9416 119.025 35.9416ZM119.104 38.3119H117.765V40.021H119.104C119.695 40.021 120.026 39.6588 120.026 39.1624C120.026 38.6664 119.695 38.3119 119.104 38.3119Z" fill="#14AEAD"/>
<path d="M123.87 40.7849V35.1777H127.454V35.9416H124.721V37.5795H127.052V38.3357H124.721V40.021H127.454V40.7849H123.87Z" fill="#14AEAD"/>
<path d="M133.574 40.7849L133.188 39.6588H130.975L130.589 40.7849H129.684L131.739 35.1777H132.425L134.48 40.7849H133.574ZM132.101 36.4457L131.227 38.934H132.952L132.101 36.4457Z" fill="#14AEAD"/>
<path d="M138.931 40.832C137.789 40.832 136.923 40.0524 136.923 38.8949V35.1777H137.773V38.8554C137.773 39.6036 138.23 40.0681 138.931 40.0681C139.632 40.0681 140.096 39.6036 140.096 38.8554V35.1777H140.947V38.8949C140.947 40.0524 140.073 40.832 138.931 40.832Z" fill="#14AEAD"/>
<path d="M145.957 35.9416V40.7849H145.107V35.9416H143.563V35.1777H147.501V35.9416H145.957Z" fill="#14AEAD"/>
<path d="M152.038 38.4775V40.7849H151.187V38.4775L149.51 35.1777H150.439L151.613 37.6427L152.786 35.1777H153.716L152.038 38.4775Z" fill="#14AEAD"/>
</svg>
