<?xml version="1.0" encoding="UTF-8" standalone="no"?>
<svg width="312px" height="312px" viewBox="0 0 312 312" version="1.1" xmlns="http://www.w3.org/2000/svg" xmlns:xlink="http://www.w3.org/1999/xlink" xmlns:sketch="http://www.bohemiancoding.com/sketch/ns">
    <!-- Generator: Sketch 3.3.2 (12043) - http://www.bohemiancoding.com/sketch -->
    <title>share-whatsapp</title>
    <desc>Created with Sketch.</desc>
    <defs></defs>
    <g id="Page-1" stroke="none" stroke-width="1" fill="none" fill-rule="evenodd" sketch:type="MSPage">
        <g id="share-whatsapp" sketch:type="MSLayerGroup">
            <circle id="Oval" fill="#B4975C" sketch:type="MSShapeGroup" cx="155.7" cy="155.7" r="155.6"></circle>
            <path d="M213.6,99.6 C199.3,85.3 180.3,77.4 160,77.4 C118.3,77.4 84.3,111.4 84.3,153.1 C84.3,166.4 87.8,179.5 94.4,190.9 L83.7,230.1 L123.8,219.6 C134.9,225.6 147.3,228.8 160,228.8 L160,228.8 L160,228.8 C201.7,228.8 235.7,194.8 235.7,153.1 C235.8,132.9 227.9,113.9 213.6,99.6 L213.6,99.6 Z M160.1,216 L160.1,216 C148.8,216 137.7,213 128,207.2 L125.7,205.8 L101.9,212 L108.3,188.8 L106.8,186.4 C100.5,176.4 97.2,164.8 97.2,152.9 C97.2,118.2 125.5,90 160.2,90 C177,90 192.8,96.6 204.7,108.5 C216.6,120.4 223.1,136.2 223.1,153 C223,187.8 194.8,216 160.1,216 L160.1,216 Z M194.6,168.9 C192.7,168 183.4,163.4 181.7,162.7 C180,162.1 178.7,161.8 177.4,163.6 C176.1,165.5 172.5,169.8 171.4,171 C170.3,172.3 169.2,172.4 167.3,171.5 C165.4,170.6 159.3,168.6 152.1,162.1 C146.5,157.1 142.7,150.9 141.6,149 C140.5,147.1 141.5,146.1 142.4,145.1 C143.3,144.3 144.3,142.9 145.2,141.8 C146.1,140.7 146.5,139.9 147.1,138.6 C147.7,137.3 147.4,136.2 146.9,135.3 C146.4,134.4 142.6,125 141.1,121.3 C139.6,117.6 138,118.1 136.8,118.1 C135.7,118 134.4,118 133.2,118 C132,118 129.9,118.5 128.2,120.4 C126.5,122.3 121.6,126.9 121.6,136.2 C121.6,145.5 128.4,154.5 129.3,155.8 C130.2,157.1 142.6,176.2 161.6,184.4 C166.1,186.3 169.6,187.5 172.4,188.4 C176.9,189.8 181.1,189.6 184.3,189.1 C187.9,188.6 195.5,184.5 197.1,180.1 C198.7,175.7 198.7,171.9 198.2,171.1 C197.7,170.3 196.5,169.9 194.6,168.9 L194.6,168.9 Z" id="Shape" fill="#FFFFFF" sketch:type="MSShapeGroup"></path>
        </g>
    </g>
</svg>