<?xml version="1.0" encoding="UTF-8" standalone="no"?>
<svg width="312px" height="312px" viewBox="0 0 312 312" version="1.1" xmlns="http://www.w3.org/2000/svg" xmlns:xlink="http://www.w3.org/1999/xlink" xmlns:sketch="http://www.bohemiancoding.com/sketch/ns">
    <!-- Generator: Sketch 3.3.3 (12072) - http://www.bohemiancoding.com/sketch -->
    <title>social-fb-gold-down</title>
    <desc>Created with Sketch.</desc>
    <defs></defs>
    <g id="Page-1" stroke="none" stroke-width="1" fill="none" fill-rule="evenodd" sketch:type="MSPage">
        <g id="social-fb-gold-down" sketch:type="MSLayerGroup" transform="translate(-0.166517, 0.224976)">
            <path d="M155.7,306.3 C72.7,306.3 5.1,238.7 5.1,155.7 C5.1,72.7 72.7,5.2 155.7,5.2 C238.7,5.2 306.3,72.8 306.3,155.8 C306.3,238.8 238.8,306.3 155.7,306.3 L155.7,306.3 Z" id="Shape" fill="#B4975C" sketch:type="MSShapeGroup"></path>
            <path d="M155.7,10.2 C194.6,10.2 231.1,25.3 258.6,52.8 C286.1,80.3 301.2,116.9 301.2,155.7 C301.2,194.5 286.1,231.1 258.6,258.6 C231.1,286.1 194.5,301.2 155.7,301.2 C116.9,301.2 80.3,286.1 52.8,258.6 C25.3,231.1 10.2,194.5 10.2,155.7 C10.2,116.9 25.3,80.3 52.8,52.8 C80.3,25.3 116.9,10.2 155.7,10.2 L155.7,10.2 Z M155.7,0.2 C69.8,0.2 0.2,69.8 0.2,155.7 C0.2,241.6 69.9,311.3 155.8,311.3 C241.7,311.3 311.4,241.6 311.4,155.7 C311.4,69.8 241.7,0.2 155.7,0.2 L155.7,0.2 L155.7,0.2 Z" id="Shape" fill="#B4975C" sketch:type="MSShapeGroup"></path>
            <path d="M133.9,251.3 L133.9,160 L109.8,160 L109.8,127.1 L133.9,127.1 L133.9,99 C133.9,76.9 148.2,56.7 181,56.7 C194.3,56.7 204.1,58 204.1,58 L203.3,88.7 C203.3,88.7 193.3,88.6 182.3,88.6 C170.4,88.6 168.6,94.1 168.6,103.1 C168.6,110.3 168.6,87.8 168.6,127.1 L204.3,127.1 L202.7,160 L168.6,160 L168.6,251.3 L133.9,251.3 L133.9,251.3 Z" id="Shape" fill="#FFFFFF" sketch:type="MSShapeGroup"></path>
        </g>
    </g>
</svg>