<?xml version="1.0" encoding="UTF-8" standalone="no"?>
<svg width="313px" height="312px" viewBox="0 0 313 312" version="1.1" xmlns="http://www.w3.org/2000/svg" xmlns:xlink="http://www.w3.org/1999/xlink" xmlns:sketch="http://www.bohemiancoding.com/sketch/ns">
    <!-- Generator: Sketch 3.3.3 (12072) - http://www.bohemiancoding.com/sketch -->
    <title>social-tw-gold</title>
    <desc>Created with Sketch.</desc>
    <defs></defs>
    <g id="Page-1" stroke="none" stroke-width="1" fill="none" fill-rule="evenodd" sketch:type="MSPage">
        <g id="social-tw-gold" sketch:type="MSLayerGroup" transform="translate(0.688808, 0.420723)" fill="#B4975C">
            <path d="M155.7,10.2 C194.6,10.2 231.1,25.3 258.6,52.8 C286.1,80.3 301.2,116.9 301.2,155.7 C301.2,194.5 286.1,231.1 258.6,258.6 C231.1,286.1 194.5,301.2 155.7,301.2 C116.9,301.2 80.3,286.1 52.8,258.6 C25.3,231.1 10.2,194.5 10.2,155.7 C10.2,116.9 25.3,80.3 52.8,52.8 C80.3,25.3 116.9,10.2 155.7,10.2 L155.7,10.2 Z M155.7,0.2 C69.8,0.2 0.2,69.8 0.2,155.7 C0.2,241.6 69.9,311.3 155.8,311.3 C241.7,311.3 311.4,241.6 311.4,155.7 C311.4,69.8 241.7,0.2 155.7,0.2 L155.7,0.2 L155.7,0.2 Z" id="Shape" sketch:type="MSShapeGroup"></path>
            <path d="M253.4,100.7 C246.6,103.7 239.2,105.8 231.5,106.7 C239.4,102 245.4,94.5 248.3,85.6 C240.9,90 232.8,93.1 224.1,94.9 C217.1,87.5 207.2,82.9 196.3,82.9 C175.2,82.9 158.1,100 158.1,121.1 C158.1,124.1 158.4,127 159.1,129.8 C127.4,128.2 99.3,113 80.5,89.9 C77.2,95.5 75.3,102.1 75.3,109.1 C75.3,122.3 82,134 92.3,140.9 C86,140.7 80.2,139 75,136.1 L75,136.6 C75,155.1 88.2,170.5 105.6,174 C102.4,174.9 99,175.3 95.5,175.3 C93,175.3 90.6,175.1 88.3,174.6 C93.2,189.8 107.2,200.8 123.9,201.1 C110.8,211.3 94.4,217.4 76.5,217.4 C73.4,217.4 70.4,217.2 67.4,216.9 C84.3,227.7 104.3,234 125.9,234 C196.1,234 234.5,175.9 234.5,125.4 C234.5,123.7 234.5,122.1 234.4,120.5 C241.8,115.1 248.2,108.4 253.4,100.7 L253.4,100.7 Z" id="Shape" sketch:type="MSShapeGroup"></path>
        </g>
    </g>
</svg>