<svg height="12" viewBox="0 0 106 12" width="106" xmlns="http://www.w3.org/2000/svg">
    <g fill="#221f1f">
        <path d="m95.7183 7.18176 1.7797-4.2959 1.7798 4.2959zm4.3657-6.926725h-5.1549l-5.4064 11.489065h4.3151l.9402-2.24788h5.457l.923 2.24788h4.332z"/>
        <path d="m59.9439 3.2065h4.9106v8.5376h4.035v-8.5376h4.9278v-2.951465h-13.8734z"/>
        <path d="m50.75 7.15846h6.9322v-2.30114h-6.9322v-1.70084h8.1161v-2.901445h-12.0111v11.489065h12.3028v-2.83477h-8.4078z"/>
        <path d="m45.2505 2.30605v-2.051015h-13.2112v2.951465h7.1084l-7.2124 6.50323v2.03437h13.3499v-2.95149h-7.1604z"/>
        <path d="m23.0742 8.91471c-2.5543 0-4.1209-.83575-4.1209-2.9825 0-2.14674 1.5496-2.9661 4.1209-2.9661 2.5372 0 4.1378.81936 4.1378 2.9661 0 2.14675-1.5836 2.9825-4.1378 2.9825zm0-8.91471c-5.1256 0-8.3269 1.90093-8.3269 5.93221 0 4.0149 3.2013 5.94859 8.3269 5.94859 5.1425 0 8.3438-1.9173 8.3438-5.94859 0-4.03128-3.2013-5.93221-8.3438-5.93221z"/>
        <path d="m3.98104 2.96911h3.9124c1.21833 0 1.68165.63273 1.68165 1.44862 0 .54948-.3432 1.53187-1.75029 1.53187h-3.84376zm9.69516 1.44862c0-2.43101-1.5958-4.162695-5.42241-4.162695h-8.25379v11.489065h3.98104v-3.24693h2.57395l2.86566 3.24693h4.97625l-3.3289-3.7298c1.6473-.68268 2.6082-2.18125 2.6082-3.59657z"/>
        <path d="m84.0551.255035-4.9301 4.202085v-4.202085h-3.9992v11.489065h3.9992v-3.16827l1.517-1.23394 3.4304 4.40221h4.999l-5.5334-6.78673 5.723-4.702335z"/>
    </g>
</svg>
