<svg xmlns="http://www.w3.org/2000/svg" width="44" height="44" viewBox="0 0 44 44">
  <g fill="none" fill-rule="evenodd">
    <polygon points="0 0 44 0 44 44 0 44"/>
    <g>
      <rect width="44" height="44" fill="#1E96C8" rx="8.8"/>
      <path fill="#FFFFFF" d="M15.5833333,14.96 L11.55,14.96 C10.9424868,14.96 10.45,14.3690159 10.45,13.64 C10.45,12.9109841 10.9424868,12.32 11.55,12.32 L15.5833333,12.32 L15.5833333,9.1764906 C15.5833333,7.75353413 16.7335001,6.6 18.1495059,6.6 L25.8504941,6.6 C27.2677521,6.6 28.4166667,7.74489329 28.4166667,9.1764906 L28.4166667,14.96 L28.3954571,14.96 C28.4095055,15.1577258 28.4166667,15.3576725 28.4166667,15.5595273 C28.4166667,19.6025127 25.5438271,22.88 22,22.88 C18.4561729,22.88 15.5833333,19.6025127 15.5833333,15.5595273 C15.5833333,15.3576725 15.5904945,15.1577258 15.6045429,14.96 L15.5833333,14.96 Z M17.1165192,23.5833168 C19.95425,25.9122376 24.04575,25.9122376 26.8834808,23.5833168 C32.9949553,25.4112423 37.4,30.6432965 37.4,37.4 L6.6,37.4 C6.6,30.6432965 11.0050447,25.4112423 17.1165192,23.5833168 Z M26.7055556,33.44 L30.1277778,33.44 C30.6002881,33.44 30.9833333,32.8490159 30.9833333,32.12 C30.9833333,31.3909841 30.6002881,30.8 30.1277778,30.8 L26.7055556,30.8 C26.2330453,30.8 25.85,31.3909841 25.85,32.12 C25.85,32.8490159 26.2330453,33.44 26.7055556,33.44 Z"/>
      <path fill="#FFFFFF" d="M28.3954571,14.96 C28.4095055,15.1577258 28.4166667,15.3576725 28.4166667,15.5595273 C28.4166667,19.6025127 25.5438271,22.88 22,22.88 C18.4561729,22.88 15.5833333,19.6025127 15.5833333,15.5595273 C15.5833333,15.3576725 15.5904945,15.1577258 15.6045429,14.96 L15.5833333,14.96 L15.5833333,9.1764906 C15.5833333,7.75353413 16.7335001,6.6 18.1495059,6.6 L25.8504941,6.6 C27.2677521,6.6 28.4166667,7.74489329 28.4166667,9.1764906 L28.4166667,14.96 L28.3954571,14.96 Z"/>
      <path fill="#FFFFFF" d="M15.5833333,9.1764906 C15.5833333,7.75353413 16.7335001,6.6 18.1495059,6.6 L25.8504941,6.6 C27.2677521,6.6 28.4166667,7.74489329 28.4166667,9.1764906 L28.4166667,14.96 L15.5833333,14.96 L15.5833333,9.1764906 Z"/>
      <path fill="#FFFFFF" d="M11.55,14.96 L17.05,14.96 C17.6575132,14.96 18.15,14.3690159 18.15,13.64 C18.15,12.9109841 17.6575132,12.32 17.05,12.32 L11.55,12.32 C10.9424868,12.32 10.45,12.9109841 10.45,13.64 C10.45,14.3690159 10.9424868,14.96 11.55,14.96 Z"/>
      <path fill="#1E96C8" d="M26.7055556,33.44 L30.1277778,33.44 C30.6002881,33.44 30.9833333,32.8490159 30.9833333,32.12 C30.9833333,31.3909841 30.6002881,30.8 30.1277778,30.8 L26.7055556,30.8 C26.2330453,30.8 25.85,31.3909841 25.85,32.12 C25.85,32.8490159 26.2330453,33.44 26.7055556,33.44 Z"/>
    </g>
  </g>
</svg>
