<svg width="18" height="18" viewBox="0 0 18 18" xmlns="http://www.w3.org/2000/svg"><title>bf_mini</title><g fill="none" fill-rule="evenodd"><rect fill="#FFF" width="18" height="18" rx="2"/><path d="M2.13 5h2.934c2.39 0 3.865.243 3.865 2.133 0 .58-.402 1.09-.945 1.496.685.312 1.202.915 1.202 2.028 0 1.577-1.19 2.272-3.374 2.342H2.13L2 12.038c.13-.15.4-.28.71-.383V6.357c-.31-.105-.58-.244-.71-.395L2.13 5zm3.593 4.533h-1.15v2.203h.89c1.023 0 1.785-.162 1.785-1.124 0-.72-.426-1.08-1.525-1.08zm-.478-3.27h-.673V8.27h1.06c.93 0 1.358-.5 1.358-1.044 0-.893-.724-.962-1.745-.962zM10.105 5l-.13.962c.13.15.402.29.712.395v5.298c-.31.104-.582.232-.71.383l.128.962h3.568l.13-.962c-.26-.197-.75-.37-1.255-.476V9.638h1.797c.09.208.194.394.324.487l.813-.093V7.968l-.814-.08c-.13.103-.234.277-.325.486h-1.797v-2.11h2.017c.104.36.284.707.478.858L16 7.017V5h-5.895z" fill="#000"/></g></svg>