<svg xmlns="http://www.w3.org/2000/svg" width="18" height="18" viewBox="0 0 18 18">
  <g fill="none" fill-rule="evenodd">
    <rect width="18" height="18"/>
    <path stroke="#FFFFFF" stroke-width="1.5" d="M13.8751913,5.53129782 L15.1819017,5.85797543 C15.515777,5.94144424 15.75,6.24143157 15.75,6.5855823 L15.75,14.25 C15.75,14.6642136 15.4142136,15 15,15 L3,15 C2.58578644,15 2.25,14.6642136 2.25,14.25 L2.25,6.5855823 C2.25,6.24143157 2.48422303,5.94144424 2.81809828,5.85797543 L4.12480872,5.53129782 C4.84882426,5.35029394 5.47938101,4.90592849 5.89335273,4.28497091 L6.3047002,3.66794971 C6.58289886,3.2506517 7.05124586,3 7.55277564,3 L10.4472244,3 C10.9487541,3 11.4171011,3.2506517 11.6952998,3.66794971 L12.1066473,4.28497091 C12.520619,4.90592849 13.1511757,5.35029394 13.8751913,5.53129782 Z"/>
    <circle cx="9" cy="9.75" r="2.25" stroke="#FFFFFF" stroke-width="1.5"/>
  </g>
</svg>
