<svg xmlns="http://www.w3.org/2000/svg" width="44" height="44" viewBox="0 0 44 44">
  <g fill="none" fill-rule="evenodd">
    <polygon points="0 0 44 0 44 44 0 44"/>
    <g>
      <rect width="44" height="44" fill="#FF445E" rx="8.8"/>
      <path fill="#FFFFFF" d="M29.986334,13.0903344 L24.2903693,13.0903248 L24.2903693,19.6903693 L19.4903693,19.6903693 L19.4903693,13.0903248 L13.8006127,13.0903344 L20.3378385,6.55310867 C21.1969919,5.69395523 22.5899549,5.69395523 23.4491083,6.55310867 L29.986334,13.0903344 Z M30.6903693,13.7943697 L37.2338381,20.3378385 C38.0929915,21.1969919 38.0929915,22.5899549 37.2338381,23.4491083 L30.6903693,29.9925771 L30.6903693,13.7943697 Z M29.9926055,30.6903409 L23.4491083,37.2338381 C22.5899549,38.0929915 21.1969919,38.0929915 20.3378385,37.2338381 L13.7943413,30.6903409 L19.4903693,30.6903248 L19.4903693,25.8903248 L24.2903693,25.8903248 L24.2903693,30.6903248 L29.9926055,30.6903409 Z M13.0903693,29.9863689 L6.55310867,23.4491083 C5.69395523,22.5899549 5.69395523,21.1969919 6.55310867,20.3378385 L13.0903693,13.8005778 L13.0903693,29.9863689 Z"/>
    </g>
  </g>
</svg>
